<?xml version="1.0" standalone="no"?>
<!DOCTYPE svg PUBLIC "-//W3C//DTD SVG 20010904//EN"
 "http://www.w3.org/TR/2001/REC-SVG-20010904/DTD/svg10.dtd">
<svg version="1.0" xmlns="http://www.w3.org/2000/svg"
 width="700.000000pt" height="700.000000pt" viewBox="0 0 700.000000 700.000000"
 preserveAspectRatio="xMidYMid meet">
<metadata>
Created by potrace 1.11, written by Peter Selinger 2001-2013
</metadata>
<g transform="translate(0.000000,700.000000) scale(0.100000,-0.100000)"
fill="#000000" stroke="none">
<path d="M2523 6699 c-251 -42 -450 -256 -478 -516 -3 -29 -2 -54 2 -54 5 -1
678 -2 1498 -4 1113 -1 1502 -5 1539 -14 236 -57 416 -251 451 -486 3 -22 6
-903 6 -1958 l0 -1917 289 -145 c160 -80 291 -145 292 -145 6 0 0 4746 -5
4769 -21 83 -41 133 -74 188 -89 145 -202 230 -363 272 -73 19 -119 20 -1590
19 -833 0 -1538 -4 -1567 -9z"/>
<path d="M1422 5538 c-191 -16 -346 -105 -445 -256 -40 -61 -73 -130 -83 -174
-2 -10 -7 -28 -10 -40 -4 -13 -7 -1092 -8 -2399 -1 -2376 -1 -2377 19 -2369
30 12 1097 469 1120 480 11 5 218 94 461 198 l441 189 319 -137 c175 -75 553
-237 839 -360 286 -123 565 -242 620 -266 55 -23 137 -58 182 -77 l81 -35 -1
2386 -2 2387 -28 80 c-74 210 -266 366 -480 391 -73 9 -2923 11 -3025 2z"/>
</g>
</svg>
